<?xml version="1.0" encoding="UTF-8"?>
<svg id="Layer_1" xmlns="http://www.w3.org/2000/svg" version="1.1" viewBox="0 0 600 600">
  <!-- Generator: Adobe Illustrator 30.1.0, SVG Export Plug-In . SVG Version: 2.1.1 Build 136)  -->
  <defs>
    <style>
      .st0 {
        fill: #1e384f;
      }
    </style>
  </defs>
  <g>
    <path class="st0" d="M164.83,273.5c-33.05,84.85,78.24,149.21,136.77,78.53l-2.31-.46c-45.76,25.62-105.23.49-116.83-50.35-1.2-4.49-4.14-15.15,2.67-15.72,1.6-.13,4.92,1.76,5.32,3.48,3.18,15.02,16.22,26.49,32.01,25.24,16.94.79,24.27-8.99,32.53-20.8,11.66-16.67,46.78-66.9,57.88-82.68.55-.79.29-3.24-.71-3.92-7.66-5.26-32.18-22.12-39.47-27.11-1.06-.73-2.27-3.58-2.09-4.84s1.98-3.45,3.2-3.92c7.66-2.77,26.64-10.38,34.04-13.08,29.79-11.27,64.51-24.51,94.36-35.75,0,0,23.65-9.11,23.65-9.11,1.19-.46,6.11-2.86,7.06-2.17,1.11.8.14,5.53.14,7.63v162.49c-.6,4.22-4.56,5.07-7.89,3.46,0,0-42.53-29.3-42.53-29.3-8.75,12.52-36.42,52.17-45.63,65.33-15.87,22.47-29.58,45.73-54.04,59.97-34.01,21.17-79.17,23.1-114.16,3.04-42.69-23.48-70.04-74.46-43.26-120.09,6.91-13.12,9.72-14.4,15.34-24.6,12.83-23.3,3.39-57.19-25.97-65.66-.95-.27-3.2-1.79-3.67-2.61-.65-1.14-.32-4.37.44-5.45s3.24-2.57,4.56-2.61c17.38-.56,33.14-2.44,48.6,7.55,26.46,16.02,32.07,53.12,14.81,78.48-5.43,8.24-10.84,16.06-14.81,25.02ZM227.69,344.25c36.44,18.07,79.76-.19,100.53-29.47,10.96-15.39,37.96-53.51,48.36-68.58,1.32-1.9,5.18-3.68,7.08-2.38,6.67,4.53,31.6,21.56,37.92,25.63.34-.47,1.41-2.74,1.41-3.46-.03-8.4-.22-56.65-.23-63.76-.01-24.12,0-52.9-.32-76.9-40.25,14.56-96.13,36.39-136.34,51.47,5.29,3.65,31.46,21.55,37.31,25.57,2.2,1.51,3.22,5.9,1.6,8.26-6.67,9.8-23.41,33.66-30.38,43.65,0,0-23.83,34.22-23.83,34.22l-14,19.92c-12,17.24-37.43,20.37-55.77,11.3,5.43,9.71,16.6,19.56,26.65,24.55ZM151.55,280.91c6.53-24.01,19.3-33.47,24.91-47.84,11.78-26.99-9.4-63.39-39.92-60.56,23.84,21.18,26.11,56.32,7.13,80.7-4.68,6.97-8.8,13.98-12.37,21.59-22.57,48.39,22.04,100.44,69.14,110.14.44.09-.06-1.55-.49-1.76-37.13-17.54-59.56-61.27-48.4-102.27Z"/>
    <path class="st0" d="M489.06,146.91c1.65,23.25-33.29,31.24-39.68,5.13-1-6.52.92-12.19,4.06-17.63l15.69-27.07,9.56,16.57c3.93,6.89,9.62,14.81,10.36,22.99Z"/>
  </g>
  <g>
    <path class="st0" d="M69.96,506.49v-45.89h17.17v43.69c0,12.04,3.46,16.57,11.38,16.57,6.44,0,10.67-2.98,16.21-10.13v-50.12h17.17v73.19h-14.07l-1.31-10.79h-.48c-6.44,7.63-13.53,12.58-23.54,12.58-15.67,0-22.53-10.61-22.53-29.09Z"/>
    <path class="st0" d="M158.11,436.34h30.69c21.64,0,37.67,7.51,37.67,30.04s-16.09,31.59-37.07,31.59h-14.01v35.82h-17.28v-97.45ZM187.97,484.14c14.54,0,21.46-5.78,21.46-17.76s-7.57-16.21-22.05-16.21h-11.98v33.97h12.58Z"/>
    <path class="st0" d="M246.32,460.6h14.07l1.31,13.05h.48c5.22-9.54,12.96-14.84,20.8-14.84,3.73,0,6.08.48,8.28,1.49l-2.98,14.9c-2.56-.71-4.47-1.19-7.51-1.19-5.84,0-12.87,3.99-17.28,15.14v44.64h-17.17v-73.19Z"/>
    <path class="st0" d="M302.91,438.07c0-5.78,4.53-9.72,10.61-9.72s10.61,3.93,10.61,9.72-4.53,9.71-10.61,9.71-10.61-4.05-10.61-9.71ZM304.87,460.6h17.17v73.19h-17.17v-73.19Z"/>
    <path class="st0" d="M346.89,460.6h14.07l1.31,9.98h.48c6.2-6.47,13.29-11.77,22.47-11.77,10.73,0,16.84,4.89,20.21,13.11,7-7.45,14.24-13.11,23.54-13.11,15.44,0,22.59,10.61,22.59,29.09v45.89h-17.17v-43.69c0-12.04-3.58-16.57-11.26-16.57-4.65,0-9.66,2.98-15.32,9.12v51.14h-17.17v-43.69c0-12.04-3.58-16.57-11.26-16.57-4.53,0-9.66,2.98-15.32,9.12v51.14h-17.17v-73.19Z"/>
    <path class="st0" d="M470.65,497.25c0-23.78,16.51-38.44,33.73-38.44,19.79,0,30.22,14.3,30.22,34.75,0,3.28-.36,6.56-.75,8.34h-46.46c1.43,12.99,9.77,20.38,21.58,20.38,6.26,0,11.62-1.97,16.99-5.3l5.84,10.67c-6.97,4.71-15.79,7.93-25.09,7.93-20.2,0-36.06-14.19-36.06-38.32ZM519.76,490.22c0-11.26-5.01-18.12-15.02-18.12-8.52,0-16.03,6.38-17.52,18.12h32.54Z"/>
  </g>
</svg>